<svg xmlns="http://www.w3.org/2000/svg" viewBox="0 0 16 16" fill="none" shape-rendering="crispEdges">
    <desc>"Pixel Art" by "Florian Körner", licensed under "CC0 1.0". / Remix of the original. -
        Created with dicebear.com</desc>
    <metadata xmlns:dc="http://purl.org/dc/elements/1.1/" xmlns:cc="http://creativecommons.org/ns#"
        xmlns:rdf="http://www.w3.org/1999/02/22-rdf-syntax-ns#">
        <rdf:RDF>
            <cc:Work>
                <dc:title>Pixel Art</dc:title>
                <dc:creator>
                    <cc:Agent rdf:about="https://dicebear.com">
                        <dc:title>Florian Körner</dc:title>
                    </cc:Agent>
                </dc:creator>
                <dc:source>https://www.figma.com/community/file/1198754108850888330</dc:source>
                <cc:license rdf:resource="https://creativecommons.org/licenses/zero/1.0/" />
            </cc:Work>
        </rdf:RDF>
    </metadata>
    <mask id="w6sj6i8m">
        <rect width="16" height="16" rx="0" ry="0" x="0" y="0" fill="#fff" />
    </mask>
    <g mask="url(#w6sj6i8m)">
        <path d="M4 2h8v1h1v3h1v2h-1v3h-1v1H9v1h4v1h1v2H2v-2h1v-1h4v-1H4v-1H3V8H2V6h1V3h1V2Z"
            fill="#eac393" />
        <path d="M4 2h8v1h1v3h1v2h-1v3h-1v1H4v-1H3V8H2V6h1V3h1V2Z" fill="#fff" fill-opacity=".1" />
        <path d="M10 13h3v1h1v2H2v-2h1v-1h3v1h4v-1Z" fill="#ffc425" />
        <path fill="#fff" d="M4 5h3v3H4zM9 5h3v3H9z" />
        <path fill="#00ffff" d="M10 5h2v2h-2zM5 5h2v2H5z" />
        <path fill="#fff" fill-opacity=".4" d="M5 5h1v1H5zM6 6h1v1H6zM10 5h1v1h-1zM11 6h1v1h-1z" />
        <path fill="#fff" fill-opacity=".7" d="M11 5h1v1h-1zM6 5h1v1H6z" />
        <path opacity=".9" d="M3 8h2v1h1v1h4V9h1V8h2v3h-1v1H4v-1H3V8Z" fill="#612616" />
        <path d="M9 9v1H7v1H6v-1h1V9h2Z" fill="#de0f0d" />
        <path d="M3 3h1v1H3zM5 2H4v1h1zM12 2h-1v1h1zM13 3h-1v1h1z" fill="#612616" />
    </g>
</svg>