<svg xmlns="http://www.w3.org/2000/svg" viewBox="0 0 16 16" fill="none" shape-rendering="crispEdges">
    <desc>"Pixel Art" by "Florian Körner", licensed under "CC0 1.0". / Remix of the original. -
        Created with dicebear.com</desc>
    <metadata xmlns:dc="http://purl.org/dc/elements/1.1/" xmlns:cc="http://creativecommons.org/ns#"
        xmlns:rdf="http://www.w3.org/1999/02/22-rdf-syntax-ns#">
        <rdf:RDF>
            <cc:Work>
                <dc:title>Pixel Art</dc:title>
                <dc:creator>
                    <cc:Agent rdf:about="https://dicebear.com">
                        <dc:title>Florian Körner</dc:title>
                    </cc:Agent>
                </dc:creator>
                <dc:source>https://www.figma.com/community/file/1198754108850888330</dc:source>
                <cc:license rdf:resource="https://creativecommons.org/licenses/zero/1.0/" />
            </cc:Work>
        </rdf:RDF>
    </metadata>
    <mask id="w6sj6i8m">
        <rect width="16" height="16" rx="0" ry="0" x="0" y="0" fill="#fff" />
    </mask>
    <g mask="url(#w6sj6i8m)">
        <path d="M4 2h8v1h1v3h1v2h-1v3h-1v1H9v1h4v1h1v2H2v-2h1v-1h4v-1H4v-1H3V8H2V6h1V3h1V2Z"
            fill="#eac393" />
        <path d="M4 2h8v1h1v3h1v2h-1v3h-1v1H4v-1H3V8H2V6h1V3h1V2Z" fill="#fff" fill-opacity=".1" />
        <path d="M10 13h3v1h1v2H2v-2h1v-1h3v1h4v-1Z" fill="#00b159" />
        <g fill-rule="evenodd" clip-rule="evenodd">
            <path d="M11 5h-1v2h2V6h-1V5ZM6 5H5v2h2V6H6V5Z" fill="#fff" />
            <path d="M10 5v1h1v1H9V5h1ZM5 5v1h1v1H4V5h1Z" fill="#00ffff" />
            <path d="M10 5v1H9V5h1Zm1 1v1h-1V6h1ZM5 5v1H4V5h1Zm1 1v1H5V6h1Z" fill="#fff"
                fill-opacity=".5" />
        </g>
        <path opacity=".9" d="M3 8h2v1h1v1h4V9h1V8h2v3h-1v1H4v-1H3V8Z" fill="#83623b" />
        <path d="M6 9v1h1v1h2v-1H7V9H6Z" fill="#de0f0d" />
        <path d="M3 3h1v1H3zM5 2H4v1h1zM12 2h-1v1h1zM13 3h-1v1h1z" fill="#83623b" />
    </g>
</svg>