<svg xmlns="http://www.w3.org/2000/svg" viewBox="0 0 200 200">
  <ellipse cx="60" cy="90" rx="35" ry="45" fill="#AB47BC" opacity="0.8" transform="rotate(-20,60,90)"/>
  <ellipse cx="140" cy="90" rx="35" ry="45" fill="#AB47BC" opacity="0.8" transform="rotate(20,140,90)"/>
  <ellipse cx="70" cy="125" rx="28" ry="35" fill="#CE93D8" opacity="0.8" transform="rotate(15,70,125)"/>
  <ellipse cx="130" cy="125" rx="28" ry="35" fill="#CE93D8" opacity="0.8" transform="rotate(-15,130,125)"/>
  <ellipse cx="100" cy="100" rx="8" ry="35" fill="#4A148C"/>
  <circle cx="100" cy="65" r="8" fill="#4A148C"/>
  <circle cx="97" cy="63" r="3" fill="white"/>
  <circle cx="103" cy="63" r="3" fill="white"/>
  <path d="M85,55 Q75,40 85,45" stroke="#4A148C" stroke-width="2" fill="none"/>
  <path d="M115,55 Q125,40 115,45" stroke="#4A148C" stroke-width="2" fill="none"/>
  <circle cx="60" cy="80" r="4" fill="#E1BEE7" opacity="0.6"/>
  <circle cx="140" cy="80" r="4" fill="#E1BEE7" opacity="0.6"/>
  <circle cx="65" cy="115" r="3" fill="#E1BEE7" opacity="0.5"/>
  <circle cx="135" cy="115" r="3" fill="#E1BEE7" opacity="0.5"/>
</svg>
