<svg xmlns="http://www.w3.org/2000/svg" viewBox="0 0 200 200">
  <ellipse cx="100" cy="120" rx="55" ry="45" fill="#FFB74D"/>
  <polygon points="45,90 55,55 75,85" fill="#FFB74D"/>
  <polygon points="155,90 145,55 125,85" fill="#FFB74D"/>
  <polygon points="48,88 58,53 70,83" fill="#FFA726"/>
  <polygon points="152,88 142,53 130,83" fill="#FFA726"/>
  <ellipse cx="65" cy="75" rx="12" ry="8" fill="#FFB74D"/>
  <ellipse cx="135" cy="75" rx="12" ry="8" fill="#FFB74D"/>
  <ellipse cx="65" cy="75" rx="8" ry="5" fill="#FFE0B2"/>
  <ellipse cx="135" cy="75" rx="8" ry="5" fill="#FFE0B2"/>
  <circle cx="80" cy="110" r="5" fill="#4E342E"/>
  <circle cx="120" cy="110" r="5" fill="#4E342E"/>
  <circle cx="82" cy="108" r="2" fill="white" opacity="0.6"/>
  <circle cx="122" cy="108" r="2" fill="white" opacity="0.6"/>
  <ellipse cx="100" cy="130" rx="8" ry="5" fill="#FF8A65"/>
  <path d="M95,132 Q100,138 105,132" stroke="#BF360C" stroke-width="2" fill="none"/>
  <path d="M60,125 Q50,135 55,140 Q60,135 65,135" stroke="#4E342E" stroke-width="2" fill="none" stroke-linecap="round"/>
  <g stroke="#4E342E" stroke-width="2" stroke-linecap="round" fill="none">
    <line x1="95" y1="155" x2="90" y2="175"/>
    <line x1="105" y1="155" x2="110" y2="175"/>
  </g>
</svg>
